<svg width="20" height="17" viewBox="0 0 20 17" fill="none" xmlns="http://www.w3.org/2000/svg">
<path d="M18 14.6936H16V5.51008L10 9.44586L4 5.51008V14.6936H2V2.09908H3.2L10 6.55962L16.8 2.09908H18M18 0H2C0.89 0 0 0.93409 0 2.09908V14.6936C0 15.2503 0.210714 15.7842 0.585786 16.1778C0.960859 16.5715 1.46957 16.7926 2 16.7926H18C18.5304 16.7926 19.0391 16.5715 19.4142 16.1778C19.7893 15.7842 20 15.2503 20 14.6936V2.09908C20 1.54237 19.7893 1.00846 19.4142 0.614806C19.0391 0.221152 18.5304 0 18 0Z" fill="white"/>
</svg>
