<svg width="20" height="22" viewBox="0 0 20 22" fill="none" xmlns="http://www.w3.org/2000/svg">
<path d="M10 0.95752C4.375 0.95752 0 5.69738 0 11.7915C0 18.9013 5.9375 21.9483 6.875 21.9483C7.5 21.9483 7.5 21.6097 7.5 21.2712V19.5784C5.3125 20.2555 4.375 18.9013 4.0625 17.8856C4.0625 17.8856 4.0625 17.547 3.4375 16.8699C3.125 16.5313 1.875 15.8542 3.125 15.8542C4.0625 15.8542 4.6875 17.2085 4.6875 17.2085C5.625 18.5627 6.875 18.2241 7.5 17.8856C7.5 17.2085 8.125 16.5313 8.125 16.5313C5.625 16.1928 3.75 15.1771 3.75 11.4529C3.75 10.0987 4.0625 9.08299 4.6875 8.40586C4.6875 8.40586 4.0625 7.05162 4.6875 5.35881C4.6875 5.35881 6.25 5.35881 7.5 6.71306C8.4375 6.03594 11.5625 6.03594 12.5 6.71306C13.75 5.35881 15.3125 5.35881 15.3125 5.35881C15.9375 7.72874 15.3125 8.40586 15.3125 8.40586C15.9375 9.08299 16.25 10.0987 16.25 11.4529C16.25 15.1771 14.0625 16.1928 11.875 16.5313C12.1875 16.8699 12.5 17.547 12.5 18.5627V21.2712C12.5 21.6097 12.5 21.9483 13.125 21.9483C14.0625 21.9483 20 18.9013 20 11.7915C20 5.69738 15.625 0.95752 10 0.95752Z" fill="white"/>
</svg>
