<svg width="20" height="22" viewBox="0 0 20 22" fill="none" xmlns="http://www.w3.org/2000/svg">
<path d="M17.7778 0.168457C18.3671 0.168457 18.9324 0.414182 19.3491 0.851575C19.7659 1.28897 20 1.8822 20 2.50077V18.8269C20 19.4455 19.7659 20.0387 19.3491 20.4761C18.9324 20.9135 18.3671 21.1592 17.7778 21.1592H2.22222C1.63285 21.1592 1.06762 20.9135 0.650874 20.4761C0.234126 20.0387 0 19.4455 0 18.8269V2.50077C0 1.8822 0.234126 1.28897 0.650874 0.851575C1.06762 0.414182 1.63285 0.168457 2.22222 0.168457H17.7778ZM17.2222 18.2439V12.0632C17.2222 11.055 16.8406 10.088 16.1613 9.37506C15.482 8.6621 14.5607 8.26157 13.6 8.26157C12.6556 8.26157 11.5556 8.86797 11.0222 9.77757V8.48314H7.92222V18.2439H11.0222V12.4947C11.0222 11.5968 11.7111 10.8621 12.5667 10.8621C12.9792 10.8621 13.3749 11.0341 13.6666 11.3403C13.9583 11.6465 14.1222 12.0617 14.1222 12.4947V18.2439H17.2222ZM4.31111 6.65228C4.80618 6.65228 5.28098 6.44587 5.63104 6.07846C5.98111 5.71105 6.17778 5.21274 6.17778 4.69314C6.17778 3.60861 5.34444 2.72234 4.31111 2.72234C3.81309 2.72234 3.33547 2.92997 2.98332 3.29957C2.63117 3.66917 2.43333 4.17045 2.43333 4.69314C2.43333 5.77766 3.27778 6.65228 4.31111 6.65228ZM5.85556 18.2439V8.48314H2.77778V18.2439H5.85556Z" fill="white"/>
</svg>
