<svg width="20" height="17" viewBox="0 0 20 17" fill="none" xmlns="http://www.w3.org/2000/svg">
<path d="M18.8333 17C16.5185 17 14.2315 16.5712 11.9722 15.7137C9.71296 14.8561 7.65741 13.64 5.80556 12.0653C3.9537 10.4912 2.52333 8.74398 1.51444 6.82361C0.505556 4.90324 0.000740741 2.95926 0 0.991667C0 0.708334 0.111111 0.472222 0.333333 0.283333C0.555556 0.0944444 0.833334 0 1.16667 0H5.66667C5.92593 0 6.15741 0.0749258 6.36111 0.224778C6.56482 0.37463 6.68519 0.551556 6.72222 0.755556L7.44444 4.06111C7.48148 4.31296 7.47222 4.52546 7.41667 4.69861C7.36111 4.87176 7.25926 5.0213 7.11111 5.14722L4.41667 7.46111C4.78704 8.04352 5.22667 8.60609 5.73556 9.14883C6.24444 9.69158 6.80482 10.2151 7.41667 10.7194C7.99074 11.2074 8.59259 11.6601 9.22222 12.0776C9.85185 12.495 10.5185 12.8766 11.2222 13.2222L13.8333 11.0028C14 10.8611 14.2178 10.755 14.4867 10.6845C14.7556 10.614 15.0193 10.5941 15.2778 10.625L19.1111 11.2861C19.3704 11.3491 19.5833 11.4634 19.75 11.6289C19.9167 11.7945 20 11.9793 20 12.1833V16.0083C20 16.2917 19.8889 16.5278 19.6667 16.7167C19.4444 16.9056 19.1667 17 18.8333 17Z" fill="white"/>
</svg>
