<svg width="432" height="834" viewBox="0 0 432 834" fill="none" xmlns="http://www.w3.org/2000/svg">
<path d="M206.368 65.96V62.972H213.136V89H209.824V65.96H206.368Z" fill="white"/>
<path d="M210.836 247.372C213.884 244.924 216.272 242.92 218 241.36C219.728 239.776 221.18 238.132 222.356 236.428C223.556 234.7 224.156 233.008 224.156 231.352C224.156 229.792 223.772 228.568 223.004 227.68C222.26 226.768 221.048 226.312 219.368 226.312C217.736 226.312 216.464 226.828 215.552 227.86C214.664 228.868 214.184 230.224 214.112 231.928H210.944C211.04 229.24 211.856 227.164 213.392 225.7C214.928 224.236 216.908 223.504 219.332 223.504C221.804 223.504 223.76 224.188 225.2 225.556C226.664 226.924 227.396 228.808 227.396 231.208C227.396 233.2 226.796 235.144 225.596 237.04C224.42 238.912 223.076 240.568 221.564 242.008C220.052 243.424 218.12 245.08 215.768 246.976H228.152V249.712H210.836V247.372Z" fill="white"/>
<path d="M212.16 410.524C212.328 408.316 213.18 406.588 214.716 405.34C216.252 404.092 218.244 403.468 220.692 403.468C222.324 403.468 223.728 403.768 224.904 404.368C226.104 404.944 227.004 405.736 227.604 406.744C228.228 407.752 228.54 408.892 228.54 410.164C228.54 411.652 228.108 412.936 227.244 414.016C226.404 415.096 225.3 415.792 223.932 416.104V416.284C225.492 416.668 226.728 417.424 227.64 418.552C228.552 419.68 229.008 421.156 229.008 422.98C229.008 424.348 228.696 425.584 228.072 426.688C227.448 427.768 226.512 428.62 225.264 429.244C224.016 429.868 222.516 430.18 220.764 430.18C218.22 430.18 216.132 429.52 214.5 428.2C212.868 426.856 211.956 424.96 211.764 422.512H214.932C215.1 423.952 215.688 425.128 216.696 426.04C217.704 426.952 219.048 427.408 220.728 427.408C222.408 427.408 223.68 426.976 224.544 426.112C225.432 425.224 225.876 424.084 225.876 422.692C225.876 420.892 225.276 419.596 224.076 418.804C222.876 418.012 221.064 417.616 218.64 417.616H217.812V414.88H218.676C220.884 414.856 222.552 414.496 223.68 413.8C224.808 413.08 225.372 411.976 225.372 410.488C225.372 409.216 224.952 408.196 224.112 407.428C223.296 406.66 222.12 406.276 220.584 406.276C219.096 406.276 217.896 406.66 216.984 407.428C216.072 408.196 215.532 409.228 215.364 410.524H212.16Z" fill="white"/>
<path d="M206.44 593.204V590.72L219.076 573.224H223V590.36H226.6V593.204H223V599H219.76V593.204H206.44ZM219.904 576.644L210.22 590.36H219.904V576.644Z" fill="white"/>
<path d="M223.828 740.816H211.192V749.024C211.744 748.256 212.56 747.632 213.64 747.152C214.72 746.648 215.884 746.396 217.132 746.396C219.124 746.396 220.744 746.816 221.992 747.656C223.24 748.472 224.128 749.54 224.656 750.86C225.208 752.156 225.484 753.536 225.484 755C225.484 756.728 225.16 758.276 224.512 759.644C223.864 761.012 222.868 762.092 221.524 762.884C220.204 763.676 218.56 764.072 216.592 764.072C214.072 764.072 212.032 763.424 210.472 762.128C208.912 760.832 207.964 759.104 207.628 756.944H210.832C211.144 758.312 211.804 759.38 212.812 760.148C213.82 760.916 215.092 761.3 216.628 761.3C218.524 761.3 219.952 760.736 220.912 759.608C221.872 758.456 222.352 756.944 222.352 755.072C222.352 753.2 221.872 751.76 220.912 750.752C219.952 749.72 218.536 749.204 216.664 749.204C215.392 749.204 214.276 749.516 213.316 750.14C212.38 750.74 211.696 751.568 211.264 752.624H208.168V737.936H223.828V740.816Z" fill="white"/>
<path d="M262 80C262 107.614 239.614 130 212 130C184.386 130 162 107.614 162 80C162 52.3858 184.386 30 212 30C239.614 30 262 52.3858 262 80ZM174.263 80C174.263 100.842 191.158 117.737 212 117.737C232.842 117.737 249.737 100.842 249.737 80C249.737 59.1583 232.842 42.2628 212 42.2628C191.158 42.2628 174.263 59.1583 174.263 80Z" fill="white"/>
<path d="M266 239C266 266.614 243.614 289 216 289C188.386 289 166 266.614 166 239C166 211.386 188.386 189 216 189C243.614 189 266 211.386 266 239ZM178.263 239C178.263 259.842 195.158 276.737 216 276.737C236.842 276.737 253.737 259.842 253.737 239C253.737 218.158 236.842 201.263 216 201.263C195.158 201.263 178.263 218.158 178.263 239Z" fill="white"/>
<path d="M270 412C270 439.614 247.614 462 220 462C192.386 462 170 439.614 170 412C170 384.386 192.386 362 220 362C247.614 362 270 384.386 270 412ZM182.263 412C182.263 432.842 199.158 449.737 220 449.737C240.842 449.737 257.737 432.842 257.737 412C257.737 391.158 240.842 374.263 220 374.263C199.158 374.263 182.263 391.158 182.263 412Z" fill="white"/>
<path d="M266 584C266 611.614 243.614 634 216 634C188.386 634 166 611.614 166 584C166 556.386 188.386 534 216 534C243.614 534 266 556.386 266 584ZM178.263 584C178.263 604.842 195.158 621.737 216 621.737C236.842 621.737 253.737 604.842 253.737 584C253.737 563.158 236.842 546.263 216 546.263C195.158 546.263 178.263 563.158 178.263 584Z" fill="white"/>
<path d="M266 748C266 775.614 243.614 798 216 798C188.386 798 166 775.614 166 748C166 720.386 188.386 698 216 698C243.614 698 266 720.386 266 748ZM178.263 748C178.263 768.842 195.158 785.737 216 785.737C236.842 785.737 253.737 768.842 253.737 748C253.737 727.158 236.842 710.263 216 710.263C195.158 710.263 178.263 727.158 178.263 748Z" fill="white"/>
<path d="M1.24587 235.206C0.269556 236.182 0.269556 237.765 1.24587 238.741L17.1558 254.651C18.1321 255.628 19.715 255.628 20.6913 254.651C21.6676 253.675 21.6676 252.092 20.6913 251.116L6.54917 236.974L20.6913 222.831C21.6676 221.855 21.6676 220.272 20.6913 219.296C19.715 218.32 18.1321 218.32 17.1558 219.296L1.24587 235.206ZM166.017 234.474L3.01364 234.474V239.474L166.017 239.474V234.474Z" fill="white"/>
<path d="M1.2322 582.232C0.255885 583.209 0.255885 584.791 1.2322 585.768L17.1421 601.678C18.1184 602.654 19.7013 602.654 20.6776 601.678C21.6539 600.701 21.6539 599.118 20.6776 598.142L6.5355 584L20.6776 569.858C21.6539 568.882 21.6539 567.299 20.6776 566.322C19.7013 565.346 18.1184 565.346 17.1421 566.322L1.2322 582.232ZM166.003 581.5H2.99996V586.5H166.003V581.5Z" fill="white"/>
<path d="M430.771 72.7678C431.747 71.7915 431.747 70.2085 430.771 69.2322L414.861 53.3223C413.885 52.346 412.302 52.346 411.325 53.3223C410.349 54.2986 410.349 55.8816 411.325 56.8579L425.467 71L411.325 85.1421C410.349 86.1184 410.349 87.7014 411.325 88.6777C412.302 89.654 413.885 89.654 414.861 88.6777L430.771 72.7678ZM266 73.5L429.003 73.5V68.5L266 68.5V73.5Z" fill="white"/>
<path d="M430.771 413.768C431.747 412.791 431.747 411.209 430.771 410.232L414.861 394.322C413.885 393.346 412.302 393.346 411.325 394.322C410.349 395.299 410.349 396.882 411.325 397.858L425.467 412L411.325 426.142C410.349 427.118 410.349 428.701 411.325 429.678C412.302 430.654 413.885 430.654 414.861 429.678L430.771 413.768ZM266 414.5H429.003V409.5H266V414.5Z" fill="white"/>
<path d="M430.771 749.768C431.747 748.791 431.747 747.209 430.771 746.232L414.861 730.322C413.885 729.346 412.302 729.346 411.325 730.322C410.349 731.299 410.349 732.882 411.325 733.858L425.467 748L411.325 762.142C410.349 763.118 410.349 764.701 411.325 765.678C412.302 766.654 413.885 766.654 414.861 765.678L430.771 749.768ZM266 750.5H429.003V745.5H266V750.5Z" fill="white"/>
<path d="M219.996 -1.52588e-05C195.332 -1.52588e-05 171.678 8.97916 154.238 24.9622C136.798 40.9452 127 62.6229 127 85.2263C127 107.83 136.798 129.507 154.238 145.49C171.678 161.473 195.332 170.453 219.996 170.453V166.356C196.517 166.356 174.001 157.808 157.399 142.593C140.797 127.379 131.47 106.743 131.47 85.2263C131.47 63.7095 140.797 43.0739 157.399 27.8592C174.001 12.6445 196.517 4.09692 219.996 4.09692V-1.52588e-05Z" fill="#463D3D"/>
<path d="M215.996 330C191.332 330 167.678 338.979 150.238 354.962C132.798 370.945 123 392.623 123 415.226C123 437.83 132.798 459.507 150.238 475.49C167.678 491.473 191.332 500.453 215.996 500.453V496.356C192.517 496.356 170.001 487.808 153.399 472.593C136.797 457.379 127.47 436.743 127.47 415.226C127.47 393.709 136.797 373.074 153.399 357.859C170.001 342.644 192.517 334.097 215.996 334.097V330Z" fill="#463D3D"/>
<path d="M215.996 663C191.332 663 167.678 671.979 150.238 687.962C132.798 703.945 123 725.623 123 748.226C123 770.83 132.798 792.507 150.238 808.49C167.678 824.473 191.332 833.453 215.996 833.453V829.356C192.517 829.356 170.001 820.808 153.399 805.593C136.797 790.379 127.47 769.743 127.47 748.226C127.47 726.709 136.797 706.074 153.399 690.859C170.001 675.644 192.517 667.097 215.996 667.097V663Z" fill="#463D3D"/>
<path d="M215.996 335.453C240.66 335.453 264.313 326.473 281.753 310.49C299.193 294.507 308.991 272.83 308.991 250.226C308.991 227.623 299.193 205.945 281.753 189.962C264.313 173.979 240.66 165 215.996 165V169.097C239.474 169.097 261.991 177.644 278.592 192.859C295.194 208.074 304.521 228.709 304.521 250.226C304.521 271.743 295.194 292.379 278.592 307.593C261.991 322.808 239.474 331.356 215.996 331.356V335.453Z" fill="#463D3D"/>
<path d="M215.996 667.453C240.66 667.453 264.313 658.473 281.753 642.49C299.193 626.507 308.991 604.83 308.991 582.226C308.991 559.623 299.193 537.945 281.753 521.962C264.313 505.979 240.66 497 215.996 497V501.097C239.474 501.097 261.991 509.644 278.592 524.859C295.194 540.074 304.521 560.709 304.521 582.226C304.521 603.743 295.194 624.379 278.592 639.593C261.991 654.808 239.474 663.356 215.996 663.356V667.453Z" fill="#463D3D"/>
</svg>
