<svg width="89" height="60" viewBox="0 0 89 60" fill="none" xmlns="http://www.w3.org/2000/svg">
<path d="M71.9586 24.3525C71.0538 11.955 61.3104 0 43.4405 0C27.0963 0 14.4922 10.7494 13.8247 25.095C4.88229 27.5569 0 36.0244 0 42.1875C0 51.6769 8.91271 60 19.0714 60H32.8452C33.1262 60 33.3957 59.9012 33.5944 59.7254C33.7931 59.5496 33.9048 59.3111 33.9048 59.0625C33.9048 58.8139 33.7931 58.5754 33.5944 58.3996C33.3957 58.2238 33.1262 58.125 32.8452 58.125H19.0714C10.04 58.125 2.11905 50.6775 2.11905 42.1875C2.11905 36.4669 7.78538 26.25 19.0714 26.25H22.25C22.531 26.25 22.8005 26.1512 22.9992 25.9754C23.1979 25.7996 23.3095 25.5611 23.3095 25.3125C23.3095 25.0639 23.1979 24.8254 22.9992 24.6496C22.8005 24.4738 22.531 24.375 22.25 24.375H19.0714C17.9928 24.375 16.9736 24.4819 15.9797 24.6356C16.8104 13.4044 26.4584 1.875 43.4405 1.875C61.6389 1.875 69.9286 14.5106 69.9286 26.25V29.0625C69.9286 29.3111 70.0402 29.5496 70.2389 29.7254C70.4376 29.9012 70.7071 30 70.9881 30C71.2691 30 71.5386 29.9012 71.7373 29.7254C71.936 29.5496 72.0476 29.3111 72.0476 29.0625V26.2331C78.445 26.8538 86.881 32.9287 86.881 42.1875C86.881 49.3612 79.0595 58.125 69.9286 58.125H54.0357C47.1742 58.125 44.5 55.7587 44.5 49.6875V23.9681L53.1415 31.5994C53.2391 31.689 53.3559 31.7606 53.4851 31.8099C53.6142 31.8592 53.7532 31.8852 53.8939 31.8865C54.0346 31.8877 54.1741 31.8642 54.3044 31.8172C54.4347 31.7702 54.5531 31.7007 54.6527 31.6128C54.7523 31.525 54.8312 31.4204 54.8846 31.3052C54.9381 31.1901 54.9651 31.0667 54.9641 30.9422C54.9631 30.8177 54.934 30.6947 54.8787 30.5802C54.8234 30.4658 54.7428 30.3622 54.6418 30.2756L45.1887 21.9281C43.93 20.8181 42.9531 20.8181 41.6965 21.9281L32.2434 30.2756C32.0504 30.4524 31.9436 30.6893 31.946 30.9351C31.9485 31.1809 32.0599 31.416 32.2563 31.5898C32.4528 31.7637 32.7185 31.8622 32.9963 31.8644C33.2741 31.8665 33.5418 31.772 33.7416 31.6013L42.381 23.9681V49.6875C42.381 56.82 45.9749 60 54.0357 60H69.9286C80.1996 60 89 50.205 89 42.1875C89 32.4994 80.0513 24.9225 71.9586 24.3525Z" fill="white"/>
</svg>
